<svg width="134" height="40" viewBox="0 0 134 40" fill="none" xmlns="http://www.w3.org/2000/svg">
<path d="M19.9999 40C31.0456 40 39.9999 31.0457 39.9999 20C39.9999 8.9543 31.0456 0 19.9999 0C8.95418 0 -0.00012207 8.9543 -0.00012207 20C-0.00012207 31.0457 8.95418 40 19.9999 40Z" fill="white" fill-opacity="0.1"/>
<path d="M18.8423 28.0463C14.9124 27.4707 11.8964 24.0828 11.8964 19.9891C11.8964 15.8954 14.9124 12.5075 18.8423 11.9322V7.69238C12.5855 8.29084 7.69226 13.5677 7.69226 19.9891C7.69226 26.4104 12.5855 31.687 18.8423 32.2858V28.0463Z" fill="white"/>
<path d="M26.9982 12L26.889 12.3711V23.1393L26.9982 23.2483L31.9967 20.2937L26.9982 12Z" fill="white"/>
<path d="M26.9983 12L21.9999 20.2937L26.9983 23.2483V18.0217V12Z" fill="white"/>
<path d="M26.9985 24.8745L26.937 24.9495V28.7853L26.9985 28.965L32 21.9214L26.9985 24.8745Z" fill="white"/>
<path d="M26.9983 28.9651V24.8745L21.9999 21.9214L26.9983 28.9651Z" fill="white"/>
<path d="M26.9983 23.248L31.9967 20.2934L26.9983 18.0215V23.248Z" fill="white"/>
<path d="M21.9999 20.2934L26.9983 23.248V18.0215L21.9999 20.2934Z" fill="white"/>
<path d="M68.4965 18.3259C68.0938 15.4175 65.8566 13.73 62.9546 13.73C59.5349 13.73 56.9589 16.2229 56.9589 20.4544C56.9589 24.6796 59.5029 27.1788 62.9546 27.1788C66.0675 27.1788 68.1322 25.1653 68.4965 22.6661L66.1059 22.6533C65.8055 24.1874 64.5526 25.0503 62.9866 25.0503C60.8644 25.0503 59.3431 23.4587 59.3431 20.4544C59.3431 17.5013 60.8516 15.8585 62.993 15.8585C64.5846 15.8585 65.831 16.7598 66.1059 18.3259H68.4965Z" fill="white"/>
<path d="M71.3882 26.9999H73.7597V22.2058H76.1758L78.7454 26.9999H81.3918L78.5601 21.8095C80.1006 21.1895 80.9123 19.8727 80.9123 18.0957C80.9123 15.5965 79.3016 13.909 76.2973 13.909H71.3882V26.9999ZM73.7597 20.2371V15.8905H75.9329C77.7035 15.8905 78.4962 16.7023 78.4962 18.0957C78.4962 19.4892 77.7035 20.2371 75.9457 20.2371H73.7597Z" fill="white"/>
<path d="M85.4963 26.9999L86.5766 23.7719H91.4985L92.5851 26.9999H95.1164L90.5013 13.909H87.5738L82.9651 26.9999H85.4963ZM87.2158 21.8671L88.9864 16.5936H89.0887L90.8593 21.8671H87.2158Z" fill="white"/>
<path d="M97.5606 26.9999H99.9321V22.5766H102.438C105.461 22.5766 107.085 20.7612 107.085 18.2428C107.085 15.7435 105.48 13.909 102.47 13.909H97.5606V26.9999ZM99.9321 20.627V15.8905H102.105C103.882 15.8905 104.669 16.8493 104.669 18.2428C104.669 19.6362 103.882 20.627 102.118 20.627H99.9321Z" fill="white"/>
<path d="M109.865 26.9999H112.236V22.5766H114.742C117.765 22.5766 119.389 20.7612 119.389 18.2428C119.389 15.7435 117.784 13.909 114.774 13.909H109.865V26.9999ZM112.236 20.627V15.8905H114.409C116.186 15.8905 116.973 16.8493 116.973 18.2428C116.973 19.6362 116.186 20.627 114.422 20.627H112.236Z" fill="white"/>
<path d="M133.866 20.4544C133.866 16.2229 131.284 13.73 127.851 13.73C124.412 13.73 121.836 16.2229 121.836 20.4544C121.836 24.6796 124.412 27.1788 127.851 27.1788C131.284 27.1788 133.866 24.6859 133.866 20.4544ZM131.482 20.4544C131.482 23.4331 129.986 25.0503 127.851 25.0503C125.723 25.0503 124.22 23.4331 124.22 20.4544C124.22 17.4757 125.723 15.8585 127.851 15.8585C129.986 15.8585 131.482 17.4757 131.482 20.4544Z" fill="white"/>
</svg>
