<svg width="159" height="41" viewBox="0 0 159 41" fill="none" xmlns="http://www.w3.org/2000/svg">
<path d="M58.568 15.4561H53V12.9121H67.28V15.4561H61.688V30.0001H58.568V15.4561Z" fill="#233348"/>
<path d="M73.8329 17.5921C74.2969 17.5921 74.6969 17.6561 75.0329 17.7841L75.0089 20.5201C74.4969 20.3121 73.9689 20.2081 73.4249 20.2081C72.4009 20.2081 71.6169 20.5041 71.0729 21.0961C70.5449 21.6881 70.2809 22.4721 70.2809 23.4481V30.0001H67.3049V21.3121C67.3049 20.0321 67.2409 18.8881 67.1129 17.8801H69.9209L70.1609 20.0161C70.4649 19.2321 70.9449 18.6321 71.6009 18.2161C72.2569 17.8001 73.0009 17.5921 73.8329 17.5921Z" fill="#233348"/>
<path d="M88.061 17.8801V30.0001H85.109V28.0561C84.741 28.7281 84.213 29.2561 83.525 29.6401C82.837 30.0081 82.053 30.1921 81.173 30.1921C80.117 30.1921 79.181 29.9361 78.365 29.4241C77.549 28.9121 76.917 28.1841 76.469 27.2401C76.021 26.2961 75.797 25.2001 75.797 23.9521C75.797 22.7041 76.021 21.6001 76.469 20.6401C76.933 19.6641 77.573 18.9121 78.389 18.3841C79.205 17.8401 80.133 17.5681 81.173 17.5681C82.053 17.5681 82.837 17.7601 83.525 18.1441C84.213 18.5121 84.741 19.0321 85.109 19.7041V17.8801H88.061ZM81.989 27.8401C82.981 27.8401 83.749 27.4961 84.293 26.8081C84.837 26.1201 85.109 25.1521 85.109 23.9041C85.109 22.6241 84.837 21.6401 84.293 20.9521C83.749 20.2641 82.973 19.9201 81.965 19.9201C80.973 19.9201 80.197 20.2801 79.637 21.0001C79.093 21.7041 78.821 22.6881 78.821 23.9521C78.821 25.2001 79.093 26.1601 79.637 26.8321C80.197 27.5041 80.981 27.8401 81.989 27.8401Z" fill="#233348"/>
<path d="M97.0644 14.7121C95.7684 14.7121 95.1204 15.4241 95.1204 16.8481V17.8801H97.8324V20.1361H95.1204V30.0001H92.1204V20.1361H89.8164V17.8801H92.1204V16.7041C92.1204 15.2641 92.4804 14.1601 93.2004 13.3921C93.9364 12.6081 94.9844 12.2161 96.3444 12.2161C97.0964 12.2161 97.7284 12.3121 98.2404 12.5041V14.8801C97.7924 14.7681 97.4004 14.7121 97.0644 14.7121Z" fill="#233348"/>
<path d="M111.616 17.8801V30.0001H108.664V28.0561C108.296 28.7281 107.768 29.2561 107.08 29.6401C106.392 30.0081 105.608 30.1921 104.728 30.1921C103.672 30.1921 102.736 29.9361 101.92 29.4241C101.104 28.9121 100.472 28.1841 100.024 27.2401C99.5757 26.2961 99.3517 25.2001 99.3517 23.9521C99.3517 22.7041 99.5757 21.6001 100.024 20.6401C100.488 19.6641 101.128 18.9121 101.944 18.3841C102.76 17.8401 103.688 17.5681 104.728 17.5681C105.608 17.5681 106.392 17.7601 107.08 18.1441C107.768 18.5121 108.296 19.0321 108.664 19.7041V17.8801H111.616ZM105.544 27.8401C106.536 27.8401 107.304 27.4961 107.848 26.8081C108.392 26.1201 108.664 25.1521 108.664 23.9041C108.664 22.6241 108.392 21.6401 107.848 20.9521C107.304 20.2641 106.528 19.9201 105.52 19.9201C104.528 19.9201 103.752 20.2801 103.192 21.0001C102.648 21.7041 102.376 22.6881 102.376 23.9521C102.376 25.2001 102.648 26.1601 103.192 26.8321C103.752 27.5041 104.536 27.8401 105.544 27.8401Z" fill="#233348"/>
<path d="M114.883 12.3361H117.859V30.0001H114.883V12.3361Z" fill="#233348"/>
<path d="M132.853 17.8801V29.6161C132.853 31.5041 132.333 32.9361 131.293 33.9121C130.253 34.8881 128.725 35.3761 126.709 35.3761C124.837 35.3761 123.189 34.9841 121.765 34.2001L122.245 31.9201C123.717 32.6881 125.181 33.0721 126.637 33.0721C128.797 33.0721 129.877 32.0001 129.877 29.8561V27.4561C129.509 28.1121 128.973 28.6481 128.269 29.0641C127.565 29.4641 126.773 29.6641 125.893 29.6641C124.837 29.6641 123.893 29.4161 123.061 28.9201C122.245 28.4081 121.605 27.6961 121.141 26.7841C120.693 25.8561 120.469 24.8001 120.469 23.6161C120.469 22.4321 120.693 21.3841 121.141 20.4721C121.605 19.5441 122.245 18.8321 123.061 18.3361C123.893 17.8241 124.837 17.5681 125.893 17.5681C126.789 17.5681 127.581 17.7601 128.269 18.1441C128.973 18.5121 129.509 19.0321 129.877 19.7041V17.8801H132.853ZM126.685 27.3121C127.677 27.3121 128.453 26.9841 129.013 26.3281C129.589 25.6721 129.877 24.7681 129.877 23.6161C129.877 22.4641 129.597 21.5601 129.037 20.9041C128.477 20.2481 127.693 19.9201 126.685 19.9201C125.693 19.9201 124.909 20.2481 124.333 20.9041C123.773 21.5601 123.493 22.4641 123.493 23.6161C123.493 24.7681 123.773 25.6721 124.333 26.3281C124.909 26.9841 125.693 27.3121 126.685 27.3121Z" fill="#233348"/>
<path d="M147.686 17.8801V30.0001H144.734V28.0561C144.366 28.7281 143.838 29.2561 143.15 29.6401C142.462 30.0081 141.678 30.1921 140.798 30.1921C139.742 30.1921 138.806 29.9361 137.99 29.4241C137.174 28.9121 136.542 28.1841 136.094 27.2401C135.646 26.2961 135.422 25.2001 135.422 23.9521C135.422 22.7041 135.646 21.6001 136.094 20.6401C136.558 19.6641 137.198 18.9121 138.014 18.3841C138.83 17.8401 139.758 17.5681 140.798 17.5681C141.678 17.5681 142.462 17.7601 143.15 18.1441C143.838 18.5121 144.366 19.0321 144.734 19.7041V17.8801H147.686ZM141.614 27.8401C142.606 27.8401 143.374 27.4961 143.918 26.8081C144.462 26.1201 144.734 25.1521 144.734 23.9041C144.734 22.6241 144.462 21.6401 143.918 20.9521C143.374 20.2641 142.598 19.9201 141.59 19.9201C140.598 19.9201 139.822 20.2801 139.262 21.0001C138.718 21.7041 138.446 22.6881 138.446 23.9521C138.446 25.2001 138.718 26.1601 139.262 26.8321C139.822 27.5041 140.606 27.8401 141.614 27.8401Z" fill="#233348"/>
<path d="M157.481 17.5921C157.945 17.5921 158.345 17.6561 158.681 17.7841L158.657 20.5201C158.145 20.3121 157.617 20.2081 157.073 20.2081C156.049 20.2081 155.265 20.5041 154.721 21.0961C154.193 21.6881 153.929 22.4721 153.929 23.4481V30.0001H150.953V21.3121C150.953 20.0321 150.889 18.8881 150.761 17.8801H153.569L153.809 20.0161C154.113 19.2321 154.593 18.6321 155.249 18.2161C155.905 17.8001 156.649 17.5921 157.481 17.5921Z" fill="#233348"/>
<circle cx="20.5" cy="20.5" r="20.5" fill="#458FF6"/>
<path d="M19.344 15.244H13.312V12.488H28.782V15.244H22.724V31H19.344V15.244Z" fill="white"/>
</svg>
