<svg width="80" height="80" viewBox="0 0 80 80" fill="none" xmlns="http://www.w3.org/2000/svg">
<circle cx="40" cy="40" r="40" fill="#C4C4C4"/>
<g clip-path="url(#clip0_96_1318)">
<path d="M78.8035 49.6731C73.4591 71.1131 51.7369 84.1462 30.3276 78.8015C8.88695 73.4571 -4.14617 51.7359 1.19852 30.3268C6.54289 8.88683 28.2335 -4.14629 49.6741 1.1984C71.0835 6.51152 84.1482 28.2328 78.8035 49.6731Z" fill="url(#paint0_linear_96_1318)"/>
<path d="M59.0449 35.0161C59.8261 29.7036 55.7949 26.8286 50.2324 24.9224L52.0449 17.7036L47.6699 16.6099L45.9199 23.6411C44.7636 23.3599 43.5761 23.0786 42.3886 22.8286L44.1386 15.7661L39.7636 14.6724L37.9824 21.8599C37.0136 21.6411 36.0761 21.4224 35.1699 21.2036V21.1724L29.1074 19.6724L27.9511 24.3599C27.9511 24.3599 31.2011 25.1099 31.1386 25.1411C32.9199 25.5786 33.2324 26.7661 33.1699 27.7036L31.1074 35.9224C31.2324 35.9536 31.3886 35.9849 31.5761 36.0786C31.4199 36.0474 31.2636 36.0161 31.1074 35.9536L28.2324 47.4536C28.0136 47.9849 27.4511 48.7974 26.2324 48.4849C26.2636 48.5474 23.0449 47.7036 23.0449 47.7036L20.8574 52.7349L26.5761 54.1724C27.6386 54.4536 28.6699 54.7036 29.7011 54.9849L27.8886 62.2661L32.2636 63.3599L34.0761 56.1411C35.2636 56.4536 36.4511 56.7661 37.5761 57.0474L35.7949 64.2349L40.1699 65.3286L41.9824 58.0474C49.4824 59.4536 55.1074 58.8911 57.4511 52.1099C59.3574 46.6724 57.3574 43.5161 53.4199 41.4536C56.3261 40.7974 58.4824 38.8911 59.0449 35.0161ZM49.0136 49.0786C47.6699 54.5161 38.4824 51.5786 35.5136 50.8286L37.9199 41.1724C40.8886 41.9224 50.4511 43.3911 49.0136 49.0786ZM50.3886 34.9224C49.1386 39.8911 41.5136 37.3599 39.0449 36.7349L41.2324 27.9849C43.7011 28.6099 51.6699 29.7661 50.3886 34.9224Z" fill="white"/>
</g>
<defs>
<linearGradient id="paint0_linear_96_1318" x1="39.9785" y1="-0.0192" x2="39.9785" y2="79.9919" gradientUnits="userSpaceOnUse">
<stop stop-color="#F9AA4B"/>
<stop offset="1" stop-color="#F7931A"/>
</linearGradient>
<clipPath id="clip0_96_1318">
<rect width="80" height="80" fill="white"/>
</clipPath>
</defs>
</svg>
