<svg width="40" height="40" viewBox="0 0 40 40" fill="none" xmlns="http://www.w3.org/2000/svg">
<path d="M25.9875 5.04531C24.4672 3.40391 22.3437 2.5 20 2.5C17.6437 2.5 15.5132 3.39844 14 5.02969C12.4703 6.67891 11.725 8.92031 11.9 11.3406C12.2468 16.1156 15.8804 20 20 20C24.1195 20 27.7468 16.1164 28.0992 11.3422C28.2765 8.94375 27.5265 6.70703 25.9875 5.04531Z" fill="#3671E9"/>
<path d="M33.7498 37.5H6.24984C5.88989 37.5047 5.53342 37.4291 5.20637 37.2786C4.87932 37.1282 4.58992 36.9068 4.35921 36.6305C3.8514 36.0234 3.64671 35.1945 3.79827 34.3562C4.45765 30.6984 6.51546 27.6258 9.74984 25.4687C12.6233 23.5539 16.2631 22.5 19.9998 22.5C23.7366 22.5 27.3764 23.5547 30.2498 25.4687C33.4842 27.625 35.542 30.6977 36.2014 34.3555C36.353 35.1937 36.1483 36.0227 35.6405 36.6297C35.4098 36.9062 35.1205 37.1277 34.7934 37.2783C34.4664 37.4288 34.1098 37.5046 33.7498 37.5Z" fill="#3671E9"/>
</svg>
